#N canvas 1 77 1351 687 24;
#X obj 117 13 tgl 30 0 empty empty empty 17 7 0 10 -262144 -1 -1 1
1;
#X floatatom 224 18 5 0 0 0 - - -;
#X floatatom 102 143 5 0 0 0 - - -;
#X obj 100 190 sel 0 1 2 3 4;
#X msg 64 248 0;
#X msg 122 247 2;
#X msg 181 250 4;
#X msg 234 250 7;
#X msg 289 247 9;
#X obj 162 306 + 60;
#X floatatom 159 346 5 0 0 0 - - -;
#X floatatom 23 451 5 0 0 1 nota - -;
#X floatatom 795 427 5 0 0 0 - - -;
#X floatatom 799 484 5 0 0 0 - - -;
#X obj 225 306 pitch;
#X symbolatom 238 345 10 0 0 0 - - -;
#X obj 23 484 mtof;
#X floatatom 23 522 7 0 0 1 hz - -;
#X obj 153 571 osc~;
#X obj 354 596 *~;
#X obj 354 632 dac~;
#X msg 806 516 \$1 100;
#X obj 117 48 metro 1000;
#X obj 105 104 counter 4;
#X obj 285 12 cnv 15 500 80 empty empty empty 20 12 0 14 -257985 -66577
0;
#X text 278 13 > com o metrônomo definimos o pulso do controle;
#X text 301 37 que queremos gerar (em milisegundos);
#X text 303 61 um milisegundo = 1 segundo;
#X obj 335 191 cnv 15 500 110 empty empty empty 20 12 0 14 -260618
-66577 0;
#X text 348 191 > com o seletor escolhemos uma diferente;
#X text 342 215 situação para cada numero da contagem;
#X text 342 242 o caso abaixo mostra a seleção de um intervalo;
#X text 343 267 da escala "pentatônica" para cada contagem;
#X obj 226 102 cnv 15 500 80 empty empty empty 20 12 0 14 -167892 -66577
0;
#X text 230 103 > o contador incrementa a cada "bang";
#X obj 114 81 bng 15 250 50 0 empty empty empty 17 7 0 10 -262144 -1
-1;
#X text 231 125 do metrônomo e esta configurado para;
#X text 233 150 ir "de 0 até 4" - 5 algarismos incluso zero;
#X obj 353 307 cnv 15 500 100 empty empty empty 20 12 0 14 -126080
-66577 0;
#X text 358 309 > ao somar 60 aos intervalos definimos que;
#X text 358 330 o intervalo está relativo ao Dó central do;
#X text 360 355 piano. A cada 12 notas temos um novo "Dó";
#X text 543 378 ex:(12 \, 24 \, 32 \, 48 \, 60...);
#X obj 133 465 cnv 15 300 80 empty empty empty 20 12 0 14 -223744 -66577
0;
#X text 151 462 o objeto mtof converte;
#X text 151 488 a escala de notas;
#X text 152 513 para frequência em Hertz;
#X obj 490 418 cnv 15 300 160 empty empty empty 20 12 0 14 -225066
-66577 0;
#X text 496 427 a segunda saída do objeto;
#X text 491 447 "makenote" informa a força;
#X text 495 471 com a qual a nota é tocada;
#X text 495 495 por isso pode ser usada;
#X text 687 543 volume.;
#X text 495 519 para criar um "envelope" de;
#X obj 14 608 cnv 15 330 50 empty empty empty 20 12 0 14 -60544 -66577
0;
#X text 21 604 o osc~ envia um sinal;
#X text 21 630 contínuo de variação em Hertz;
#X obj 408 594 cnv 15 400 70 empty empty empty 20 12 0 14 -257985 -66577
0;
#X text 415 614 tem geralmente como finalidade;
#X text 415 590 os objetos com o caractere ~ (til);
#X text 418 636 monitorar ou gerar sinal sonoro;
#X obj 64 226 bng 15 250 50 0 empty empty empty 17 7 0 10 -262144 -1
-1;
#X obj 123 225 bng 15 250 50 0 empty empty empty 17 7 0 10 -262144
-1 -1;
#X obj 183 229 bng 15 250 50 0 empty empty empty 17 7 0 10 -262144
-1 -1;
#X obj 235 230 bng 15 250 50 0 empty empty empty 17 7 0 10 -262144
-1 -1;
#X obj 288 227 bng 15 250 50 0 empty empty empty 17 7 0 10 -262144
-1 -1;
#X obj 157 382 makenote 50 200;
#X obj 796 458 / 127;
#X obj 861 408 vsl 15 100 0 0.5 0 0 empty empty empty 0 -9 0 10 -262144
-1 -1 0 1;
#X obj 827 546 vline~;
#X connect 0 0 22 0;
#X connect 1 0 22 1;
#X connect 2 0 3 0;
#X connect 3 0 61 0;
#X connect 3 1 62 0;
#X connect 3 2 63 0;
#X connect 3 3 64 0;
#X connect 3 4 65 0;
#X connect 4 0 9 0;
#X connect 5 0 9 0;
#X connect 6 0 9 0;
#X connect 7 0 9 0;
#X connect 8 0 9 0;
#X connect 9 0 10 0;
#X connect 10 0 14 0;
#X connect 10 0 66 0;
#X connect 11 0 16 0;
#X connect 12 0 67 0;
#X connect 13 0 21 0;
#X connect 13 0 68 0;
#X connect 14 1 15 0;
#X connect 16 0 17 0;
#X connect 17 0 18 0;
#X connect 18 0 19 0;
#X connect 19 0 20 0;
#X connect 19 0 20 1;
#X connect 21 0 69 0;
#X connect 22 0 35 0;
#X connect 23 0 2 0;
#X connect 35 0 23 0;
#X connect 61 0 4 0;
#X connect 62 0 5 0;
#X connect 63 0 6 0;
#X connect 64 0 7 0;
#X connect 65 0 8 0;
#X connect 66 0 11 0;
#X connect 66 1 12 0;
#X connect 67 0 13 0;
#X connect 69 0 19 1;
