#N canvas 28 106 1266 629 24;
#X msg 41 27 create \, 1;
#X text 151 24 cria janela;
#X msg 82 70 destroy;
#X text 168 68 fecha janela;
#X msg 256 456 color \$1 \$2 \$3;
#X floatatom 557 81 5 0 255 0 - - -;
#X floatatom 555 130 5 0 255 0 - - -;
#X floatatom 557 188 5 0 255 0 - - -;
#X obj 560 57 hsl 128 15 0 1 0 0 empty empty empty -2 -8 0 10 -258113
-1 -1 0 1;
#X obj 558 112 hsl 128 15 0 1 0 0 empty empty empty -2 -8 0 10 -4034
-1 -1 0 1;
#X obj 559 171 hsl 128 15 0 1 0 0 empty empty empty -2 -8 0 10 -4160
-1 -1 0 1;
#X obj 428 281 pack f f f;
#X obj 410 360 prepend set;
#X msg 410 390 0.629921 0.480315 0.653543;
#X obj 35 529 gemwin;
#X text 235 329 só verde;
#X text 234 360 só azul;
#X text 239 296 só vermelho;
#X msg 100 294 color 1 0 0;
#X msg 101 332 color 0 1 0;
#X msg 101 366 color 0 0 1;
#X text 550 19 Combinando quantidades RGB:;
#X obj 67 105 cnv 15 400 150 empty empty empty 20 12 0 14 -204786 -66577
0;
#X text 90 109 exemplo de formatação de cor;
#X text 91 182 Red (vermelho) Green (verde);
#X text 92 208 Blue (azul);
#X text 129 264 exemplo:;
#X text 89 159 As cores seguem o padrão RGB;
#X obj 548 276 cnv 15 400 30 empty empty empty 20 12 0 14 -257985 -66577
0;
#X text 548 278 < "empacotando" uma lista de dados;
#X obj 539 355 cnv 15 350 30 empty empty empty 20 12 0 14 -257985 -66577
0;
#X text 546 356 < visualisando a lista;
#X obj 420 454 cnv 15 400 30 empty empty empty 20 12 0 14 -257985 -66577
0;
#X text 422 454 < atribuíndo um valor para cada cor;
#X text 691 48 vermelho (R);
#X text 691 105 verde(G);
#X text 693 163 azul (B);
#X text 91 134 como parâmetro do objeto gemwin;
#X obj 476 237 cnv 15 720 40 empty empty <_MANDANDO_UM_BANG_NO_INLET_DA_ESQUERDA
20 20 0 30 -261234 -66577 0;
#X obj 474 242 bng 15 250 50 0 empty empty empty 17 7 0 10 -258113
-261682 -1;
#X connect 0 0 14 0;
#X connect 2 0 14 0;
#X connect 4 0 14 0;
#X connect 8 0 5 0;
#X connect 8 0 11 0;
#X connect 9 0 6 0;
#X connect 9 0 39 0;
#X connect 9 0 11 1;
#X connect 10 0 7 0;
#X connect 10 0 11 2;
#X connect 10 0 39 0;
#X connect 11 0 12 0;
#X connect 11 0 4 0;
#X connect 12 0 13 0;
#X connect 18 0 14 0;
#X connect 19 0 14 0;
#X connect 20 0 14 0;
#X connect 39 0 11 0;
