#N canvas 1 95 1235 663 24;
#X obj 96 29 tgl 30 0 empty empty empty 17 7 0 10 -262144 -1 -1 0 1
;
#X obj 275 156 gemwin;
#X text 261 18 cria janela;
#X msg 291 111 destroy;
#X text 381 117 fecha janela;
#X obj 95 69 gemhead;
#X obj 56 413 translateXYZ;
#X floatatom 138 376 5 0 0 0 - - -;
#X obj 127 161 metro 500;
#X obj 127 139 tgl 15 0 empty empty empty 17 7 0 10 -262144 -1 -1 0
1;
#X floatatom 129 275 5 0 0 0 - - -;
#X floatatom 494 362 5 0 0 0 - - -;
#X obj 56 477 square 1;
#X msg 275 56 reset \, create \, 1;
#X obj 128 328 - 4;
#X obj 129 192 counter 8;
#X text 554 362 eixo y (altura);
#X text 201 371 eixo x (largura);
#X floatatom 494 395 5 0 0 0 - - -;
#X obj 194 239 cnv 15 650 120 empty empty empty 20 12 0 14 -261421
-66577 0;
#X text 200 254 considerando -4 unidades da janela a esquerda;
#X text 158 236 EX:;
#X text 555 395 eixo z (profundidade);
#X obj 545 14 cnv 15 500 200 empty empty Dado_o_exemplo_ao_lado: 20
12 0 30 -4032 -66577 0;
#X text 552 92 com um texto que se;
#X text 556 116 modifica toda vez que;
#X text 653 146 sai da tela?;
#X text 552 69 que fizemos com o quadrado;
#X text 200 275 considerando 4 unidades da janela a direita para que
SAIA;
#X text 197 314 e diminuindo -4 para ter [-4 \, -3 \, -2 \, -1 \, 0
\, 1 \, 2 \, 3 \, 4];
#X text 201 235 Fazendo o quadrado andar com um contador:;
#X text 745 294 DA TELA;
#X obj 873 60 cnv 15 200 300 empty empty empty 20 12 0 14 -257985 -66577
0;
#X obj 919 331 text2d;
#X floatatom 1007 292 5 0 0 2 tamanho - -;
#X msg 885 267 text \$1;
#X text 551 46 Como fazer o mesmo;
#X obj 882 89 sel 0 1;
#X msg 880 131 zero;
#X msg 936 133 um;
#X obj 888 169 tosymbol;
#X symbolatom 883 209 10 0 0 1 INSERE_TEXTO - -;
#X obj 883 63 tgl 15 0 empty empty empty 17 7 0 10 -262144 -1 -1 0
1;
#X text 915 63 DICA:;
#X connect 0 0 5 0;
#X connect 3 0 1 0;
#X connect 5 0 6 0;
#X connect 6 0 12 0;
#X connect 7 0 6 1;
#X connect 8 0 15 0;
#X connect 9 0 8 0;
#X connect 10 0 14 0;
#X connect 11 0 6 2;
#X connect 13 0 1 0;
#X connect 14 0 7 0;
#X connect 15 0 10 0;
#X connect 18 0 6 3;
#X connect 34 0 33 1;
#X connect 35 0 33 0;
#X connect 37 0 38 0;
#X connect 37 1 39 0;
#X connect 38 0 40 0;
#X connect 39 0 40 0;
#X connect 40 0 41 0;
#X connect 41 0 35 0;
#X connect 42 0 37 0;
