#N canvas 1 95 1235 663 24;
#X obj 96 29 tgl 30 0 empty empty empty 17 7 0 10 -262144 -1 -1 0 1
;
#X obj 275 156 gemwin;
#X text 272 28 cria janela;
#X msg 291 111 destroy;
#X text 381 117 fecha janela;
#X obj 95 69 gemhead;
#X obj 56 413 translateXYZ;
#X floatatom 138 376 5 0 0 0 - - -;
#X obj 127 161 metro 500;
#X obj 127 139 tgl 15 0 empty empty empty 17 7 0 10 -262144 -1 -1 0
1;
#X floatatom 129 275 5 0 0 0 - - -;
#X msg 275 56 reset \, create \, 1;
#X obj 128 328 - 4;
#X obj 129 192 counter 8;
#X text 201 371 eixo x (largura);
#X obj 59 536 text2d;
#X floatatom 150 539 5 0 0 2 tamanho - -;
#X msg 111 492 text \$1;
#X symbolatom 112 462 10 0 0 2 INSERE_TEXTO - -;
#X floatatom 193 123 5 0 0 0 - - -;
#X obj 402 286 cnv 15 350 300 empty empty empty 20 12 0 14 -257985
-66577 0;
#X obj 409 336 counter 1;
#X obj 411 367 sel 0 1;
#X msg 408 398 zero;
#X msg 467 398 um;
#X obj 416 436 tosymbol;
#X obj 408 300 sel 0;
#X text 480 300 Toda vez que o;
#X text 525 329 contador zera;
#X text 528 352 o seletor conta de;
#X text 602 375 zero até um;
#X text 529 403 mudando as duas;
#X text 527 428 diferentes mensagens;
#X text 412 463 (tosymbol) converte a mensagem;
#X text 423 488 novamente para o formato;
#X text 648 514 "symbol".;
#X connect 0 0 5 0;
#X connect 3 0 1 0;
#X connect 5 0 6 0;
#X connect 6 0 18 0;
#X connect 6 0 15 0;
#X connect 7 0 6 1;
#X connect 8 0 13 0;
#X connect 9 0 8 0;
#X connect 10 0 12 0;
#X connect 10 0 26 0;
#X connect 11 0 1 0;
#X connect 12 0 7 0;
#X connect 13 0 10 0;
#X connect 16 0 15 1;
#X connect 17 0 15 0;
#X connect 18 0 17 0;
#X connect 19 0 8 1;
#X connect 21 0 22 0;
#X connect 22 0 23 0;
#X connect 22 1 24 0;
#X connect 23 0 25 0;
#X connect 24 0 25 0;
#X connect 25 0 18 0;
#X connect 26 0 21 0;
