#N canvas 1 77 1351 687 24;
#X obj -7 7 gemhead;
#X obj -24 470 pix_texture;
#X obj 354 483 unpack 0 0 0;
#X floatatom 320 568 5 0 0 3 total_de_quadros - -;
#X floatatom 519 543 5 0 0 3 width(largura) - -;
#X floatatom 583 509 5 0 0 3 height(altura) - -;
#X obj 164 417 bng 15 250 50 0 empty empty fim_do_arquivo 20 7 0 10
-262144 -1 -1;
#X floatatom 137 348 5 0 10000 1 frame(quadro) - -;
#X obj -24 588 rectangle 4 3;
#X obj 49 391 pix_film;
#X msg 549 72 reset \, dimen 640 480 \, create \, 1;
#X obj 667 234 gemwin;
#X msg 722 121 reset \, fullscreen 1 \, create \, 1;
#X msg 532 41 reset \, dimen 320 240 \, create \, 1;
#X obj 169 253 tgl 15 0 empty empty empty 17 7 0 10 -262144 -1 -1 0
1;
#X obj 162 276 metro 10;
#X obj 544 -24 cnv 15 500 60 empty empty empty 20 12 0 14 -257985 -66577
0;
#X obj 734 152 cnv 15 530 60 empty empty empty 20 12 0 14 -135119 -66577
0;
#X msg 1178 209 0 \, destroy;
#N canvas 869 408 464 316 esc 1;
#X obj 5 21 gemkeyboard;
#X obj 84 256 outlet;
#X obj 223 193 keyname;
#X obj 294 230 sel Escape;
#X obj 12 101 sel 53;
#X obj 84 103 sel Escape;
#X obj 77 -9 gemkeyname;
#X obj 135 35 cnv 15 200 60 empty empty empty 20 12 0 14 -257985 -66577
0;
#X text 135 36 captura de tecla ESC;
#X text 134 60 no contexto GEM;
#X obj 218 131 cnv 15 200 60 empty empty empty 20 12 0 14 -257985 -66577
0;
#X text 214 123 captura de tecla ESC;
#X text 217 145 no contexto do patch;
#X connect 0 0 4 0;
#X connect 2 1 3 0;
#X connect 3 0 1 0;
#X connect 4 0 1 0;
#X connect 5 0 1 0;
#X connect 6 1 5 0;
#X restore 1178 179 pd esc;
#X text 734 179 deixar um atalho de teclado retornar >;
#X obj 64 48 cnv 15 400 60 empty empty empty 20 12 0 14 -68928 -66577
0;
#X text 67 49 > formatação de caminho para diretório;
#X text 109 73 > objeto;
#X obj 203 23 bng 25 250 50 0 empty empty empty 0 -6 0 8 -262144 -1
-1;
#X obj 203 74 openpanel;
#X obj -9 -26 cnv 15 400 30 empty empty empty 20 12 0 14 -259657 -66577
0;
#X text -2 -24 > renderização grafica de grafo GEM;
#X obj 141 138 cnv 15 100 30 empty empty empty 20 12 0 14 -68928 -66577
0;
#X msg 152 140 open \$1;
#X text 538 -23 > argumentos de criação: reinicia a renderização
;
#X text 561 1 determina dimensões da tela;
#X obj 356 420 cnv 15 500 60 empty empty empty 20 12 0 14 -257985 -66577
0;
#X text 364 422 > estrutura de dados com total de frames;
#X obj -17 501 cnv 15 300 60 empty empty empty 20 12 0 14 -232576 -66577
0;
#X text -15 501 > aplicação dos pixels do filme;
#X text -15 526 em textura de um retângulo;
#X text 369 447 dimensões do quadro largura e altura;
#X obj 204 213 cnv 15 300 60 empty empty empty 20 12 0 14 -4032 -66577
0;
#X text 209 218 > correndo os frames com;
#X text 231 239 contador;
#X obj 343 280 r total_de_quadros;
#X obj 162 306 counter;
#X text 738 152 > liga tela cheia: IMPORTANTE ao usar tela cheia;
#X obj 295 621 s total_de_quadros;
#X connect 0 0 9 0;
#X connect 1 0 8 0;
#X connect 2 0 3 0;
#X connect 2 1 4 0;
#X connect 2 2 5 0;
#X connect 3 0 44 0;
#X connect 7 0 9 1;
#X connect 9 0 1 0;
#X connect 9 1 2 0;
#X connect 9 2 6 0;
#X connect 10 0 11 0;
#X connect 12 0 11 0;
#X connect 13 0 11 0;
#X connect 14 0 15 0;
#X connect 15 0 42 0;
#X connect 18 0 11 0;
#X connect 19 0 18 0;
#X connect 24 0 25 0;
#X connect 25 0 29 0;
#X connect 29 0 9 0;
#X connect 41 0 42 4;
#X connect 42 0 7 0;
