#N canvas 26 77 1187 671 24;
#X obj 11 70 pix_video;
#X obj 11 6 gemhead;
#X obj 327 76 gemwin;
#X msg 385 5 create \, 1;
#X msg 382 35 0 \, destroy;
#X obj 13 572 pix_texture;
#X floatatom 159 625 5 0 0 0 - - -;
#X obj 170 329 bng 15 250 50 0 empty empty empty 17 7 0 10 -262144
-1 -1;
#X obj 124 189 key;
#X floatatom 130 223 5 0 0 0 - - -;
#X text 255 289 letra B (98);
#X obj 494 372 gemhead -1;
#X obj 494 484 pix_texture;
#X obj 13 650 square 4;
#X obj 170 293 sel 66;
#X obj 91 439 pix_buffer_write anima;
#X obj 491 418 pix_buffer_read anima;
#X obj 94 477 pix_buffer anima 5;
#X obj 170 355 counter 4;
#X floatatom 170 414 5 0 0 0 - - -;
#X obj 562 305 counter 4;
#X obj 565 267 metro 500;
#X floatatom 629 343 5 0 0 0 - - -;
#X obj 563 218 tgl 40 0 empty empty empty 17 7 0 10 -262144 -1 -1 0
1;
#X obj 493 552 translateXYZ -2.5 2.5 0;
#X obj 491 592 square 2;
#X obj 682 227 hsl 128 15 100 1000 0 0 empty empty empty -2 -8 0 10
-262144 -1 -1 0 1;
#X floatatom 680 255 5 100 1000 0 - - -;
#X obj 119 60 cnv 15 200 50 empty empty empty 20 12 0 14 -261234 -66577
0;
#X text 118 67 imagem de camera;
#X obj 405 66 cnv 15 200 50 empty empty empty 20 12 0 14 -261234 -66577
0;
#X text 404 73 estrutura da janela;
#X obj 678 290 cnv 15 250 50 empty empty empty 20 12 0 14 -257985 -66577
0;
#X text 679 291 interação com quadros;
#X obj 626 462 cnv 15 200 70 empty empty empty 20 12 0 14 -257985 -66577
0;
#X text 628 460 "anima" os frames;
#X text 635 482 selecionando com;
#X text 700 505 o contador;
#X obj 192 174 cnv 15 300 100 empty empty empty 20 12 0 14 -159325
-66577 0;
#X text 211 174 salva frames (quadros);
#X text 212 197 da imagem principal;
#X text 212 222 baseando-se na;
#X text 210 247 interação com o teclado;
#X obj 117 35 cnv 15 1 50 empty empty 1 20 12 0 60 -262144 -66577 0
;
#X obj 187 137 cnv 15 1 50 empty empty 2 20 12 0 60 -262144 -66577
0;
#X obj 547 180 cnv 15 1 50 empty empty 3 20 12 0 60 -262144 -66577
0;
#X obj 790 351 cnv 15 250 50 empty empty empty 20 12 0 14 -4032 -66577
0;
#N canvas 1 77 1351 687 exemplo_sonoro 0;
#X floatatom 112 153 5 0 0 0 - - -;
#X obj 110 200 sel 0 1 2 3 4;
#X msg 74 258 0;
#X msg 132 257 2;
#X msg 191 260 4;
#X msg 244 260 7;
#X msg 299 257 9;
#X obj 172 316 + 60;
#X floatatom 169 356 5 0 0 0 - - -;
#X floatatom 33 461 5 0 0 1 nota - -;
#X floatatom 805 437 5 0 0 0 - - -;
#X floatatom 809 494 5 0 0 0 - - -;
#X obj 235 316 pitch;
#X symbolatom 248 355 10 0 0 0 - - -;
#X obj 33 494 mtof;
#X floatatom 33 532 7 0 0 1 hz - -;
#X obj 163 581 osc~;
#X obj 364 606 *~;
#X obj 364 642 dac~;
#X msg 816 526 \$1 100;
#X obj 170 92 cnv 15 500 80 empty empty empty 20 12 0 14 -257985 -66577
0;
#X obj 345 201 cnv 15 500 110 empty empty empty 20 12 0 14 -260618
-66577 0;
#X text 358 201 > com o seletor escolhemos uma diferente;
#X text 352 225 situação para cada numero da contagem;
#X text 352 252 o caso abaixo mostra a seleção de um intervalo;
#X text 353 277 da escala "pentatônica" para cada contagem;
#X obj 363 317 cnv 15 500 100 empty empty empty 20 12 0 14 -126080
-66577 0;
#X text 368 319 > ao somar 60 aos intervalos definimos que;
#X text 368 340 o intervalo está relativo ao Dó central do;
#X text 370 365 piano. A cada 12 notas temos um novo "Dó";
#X text 553 388 ex:(12 \, 24 \, 32 \, 48 \, 60...);
#X obj 143 475 cnv 15 300 80 empty empty empty 20 12 0 14 -223744 -66577
0;
#X text 161 472 o objeto mtof converte;
#X text 161 498 a escala de notas;
#X text 162 523 para frequência em Hertz;
#X obj 500 428 cnv 15 300 160 empty empty empty 20 12 0 14 -225066
-66577 0;
#X text 506 437 a segunda saída do objeto;
#X text 501 457 "makenote" informa a força;
#X text 505 481 com a qual a nota é tocada;
#X text 505 505 por isso pode ser usada;
#X text 697 553 volume.;
#X text 505 529 para criar um "envelope" de;
#X obj 24 618 cnv 15 330 50 empty empty empty 20 12 0 14 -60544 -66577
0;
#X text 31 614 o osc~ envia um sinal;
#X text 31 640 contínuo de variação em Hertz;
#X obj 418 604 cnv 15 400 70 empty empty empty 20 12 0 14 -257985 -66577
0;
#X text 425 624 tem geralmente como finalidade;
#X text 425 600 os objetos com o caractere ~ (til);
#X text 428 646 monitorar ou gerar sinal sonoro;
#X obj 74 236 bng 15 250 50 0 empty empty empty 17 7 0 10 -262144 -1
-1;
#X obj 133 235 bng 15 250 50 0 empty empty empty 17 7 0 10 -262144
-1 -1;
#X obj 193 239 bng 15 250 50 0 empty empty empty 17 7 0 10 -262144
-1 -1;
#X obj 245 240 bng 15 250 50 0 empty empty empty 17 7 0 10 -262144
-1 -1;
#X obj 298 237 bng 15 250 50 0 empty empty empty 17 7 0 10 -262144
-1 -1;
#X obj 167 392 makenote 50 200;
#X obj 806 468 / 127;
#X obj 871 418 vsl 15 100 0 0.5 0 0 empty empty empty 0 -9 0 10 -262144
-1 -1 0 1;
#X obj 837 556 vline~;
#X obj 99 99 inlet;
#X text 186 117 subpatch. O seletor de 0 até 4 dos quadros;
#X text 163 93 > com o objeto inlet inserimos o sinal externo no;
#X text 187 141 serve aqui como o chaveador de notas.;
#X connect 0 0 1 0;
#X connect 1 0 49 0;
#X connect 1 1 50 0;
#X connect 1 2 51 0;
#X connect 1 3 52 0;
#X connect 1 4 53 0;
#X connect 2 0 7 0;
#X connect 3 0 7 0;
#X connect 4 0 7 0;
#X connect 5 0 7 0;
#X connect 6 0 7 0;
#X connect 7 0 8 0;
#X connect 8 0 12 0;
#X connect 8 0 54 0;
#X connect 9 0 14 0;
#X connect 10 0 55 0;
#X connect 11 0 19 0;
#X connect 11 0 56 0;
#X connect 12 1 13 0;
#X connect 14 0 15 0;
#X connect 15 0 16 0;
#X connect 16 0 17 0;
#X connect 17 0 18 0;
#X connect 17 0 18 1;
#X connect 19 0 57 0;
#X connect 49 0 2 0;
#X connect 50 0 3 0;
#X connect 51 0 4 0;
#X connect 52 0 5 0;
#X connect 53 0 6 0;
#X connect 54 0 9 0;
#X connect 54 1 10 0;
#X connect 55 0 11 0;
#X connect 57 0 17 1;
#X connect 58 0 0 0;
#X restore 714 383 pd exemplo_sonoro;
#X text 715 355 clique:para entender solução:;
#X connect 0 0 5 0;
#X connect 0 0 15 0;
#X connect 1 0 0 0;
#X connect 3 0 2 0;
#X connect 4 0 2 0;
#X connect 5 0 13 0;
#X connect 6 0 13 1;
#X connect 7 0 18 0;
#X connect 8 0 9 0;
#X connect 8 0 14 0;
#X connect 11 0 16 0;
#X connect 12 0 24 0;
#X connect 14 0 7 0;
#X connect 16 0 12 0;
#X connect 18 0 19 0;
#X connect 19 0 15 1;
#X connect 20 0 22 0;
#X connect 21 0 20 0;
#X connect 22 0 16 1;
#X connect 22 0 47 0;
#X connect 23 0 21 0;
#X connect 24 0 25 0;
#X connect 26 0 27 0;
#X connect 27 0 21 1;
